<svg width="278" height="90" viewBox="0 0 278 90" fill="none" xmlns="http://www.w3.org/2000/svg">
<g clip-path="url(#clip0_113_8)">
<path d="M0 89.6V0H44.16C54.144 0 62.9333 1.8347 70.528 5.504C78.1227 9.088 84.0533 14.208 88.32 20.864C92.587 27.52 94.72 35.456 94.72 44.672C94.72 53.9733 92.587 61.9947 88.32 68.736C84.0533 75.392 78.1227 80.555 70.528 84.224C62.9333 87.808 54.144 89.6 44.16 89.6H0ZM30.208 66.048H42.88C47.1467 66.048 50.8587 65.2373 54.016 63.616C57.2587 61.9947 59.776 59.6053 61.568 56.448C63.36 53.2053 64.256 49.28 64.256 44.672C64.256 40.1493 63.36 36.3093 61.568 33.152C59.776 29.9947 57.2587 27.6053 54.016 25.984C50.8587 24.3627 47.1467 23.552 42.88 23.552H30.208V66.048Z" fill="#2D2D2D"/>
<path d="M133.69 59.67L125.197 51.8225C124.473 51.1533 123.552 50.8187 122.432 50.8187C121.313 50.8187 120.392 51.1533 119.667 51.8225C118.943 52.4917 118.581 53.3433 118.581 54.3775C118.581 55.4117 118.943 56.2633 119.667 56.9325L130.925 67.335C131.715 68.065 132.637 68.43 133.69 68.43C134.743 68.43 135.665 68.065 136.455 67.335L158.772 46.7125C159.497 46.0433 159.859 45.1917 159.859 44.1575C159.859 43.1233 159.497 42.2717 158.772 41.6025C158.048 40.9333 157.127 40.5987 156.007 40.5987C154.888 40.5987 153.967 40.9333 153.242 41.6025L133.69 59.67ZM139.22 89.6C133.756 89.6 128.621 88.641 123.815 86.724C119.009 84.806 114.829 82.206 111.274 78.924C107.719 75.639 104.905 71.776 102.833 67.335C100.76 62.8942 99.723 58.1492 99.72 53.1C99.72 48.0508 100.758 43.3058 102.833 38.865C104.908 34.4242 107.721 30.5612 111.274 27.2762C114.829 23.9913 119.009 21.3912 123.815 19.4762C128.621 17.5612 133.756 16.6024 139.22 16.6C144.684 16.6 149.819 17.5587 154.625 19.4762C159.431 21.3937 163.611 23.9937 167.166 27.2762C170.721 30.5612 173.536 34.4242 175.611 38.865C177.686 43.3058 178.723 48.0508 178.72 53.1C178.72 58.1492 177.682 62.8942 175.607 67.335C173.532 71.776 170.719 75.639 167.166 78.924C163.611 82.209 159.431 84.81 154.625 86.727C149.819 88.645 144.684 89.602 139.22 89.6Z" fill="#24C250"/>
<path d="M183.72 89.6V18.304H212.648V89.6H183.72ZM259.262 89.6C249.619 89.6 242.11 87.296 236.734 82.688C231.358 77.995 228.67 70.827 228.67 61.184V22.144H257.598V60.928C257.598 63.0613 258.153 64.7253 259.262 65.92C260.457 67.115 261.907 67.712 263.614 67.712C266.089 67.712 268.265 67.072 270.142 65.792L277.054 85.888C274.835 87.168 272.147 88.107 268.99 88.704C265.918 89.301 262.675 89.6 259.262 89.6ZM219.07 43.264V18.304H271.934V43.264H219.07Z" fill="#2D2D2D"/>
</g>
<defs>
<clipPath id="clip0_113_8">
<rect width="277.054" height="89.6" fill="white"/>
</clipPath>
</defs>
</svg>
